<?xml version="1.0" standalone="no"?>
<!DOCTYPE svg PUBLIC "-//W3C//DTD SVG 20010904//EN"
 "http://www.w3.org/TR/2001/REC-SVG-20010904/DTD/svg10.dtd">
<svg version="1.0" xmlns="http://www.w3.org/2000/svg"
 width="500.000000pt" height="500.000000pt" viewBox="0 0 500.000000 500.000000"
 preserveAspectRatio="xMidYMid meet">

<g transform="translate(0.000000,500.000000) scale(0.100000,-0.100000)"
fill="#000000" stroke="none">
<path d="M3384 2720 c0 -14 7 -20 23 -20 16 0 23 6 23 20 0 14 -7 20 -23 20
-16 0 -23 -6 -23 -20z"/>
<path d="M2705 2694 c-11 -8 -19 -20 -17 -26 2 -6 -4 -8 -13 -4 -9 3 -13 2
-10 -4 3 -6 1 -10 -4 -10 -6 0 -11 8 -11 17 0 9 -3 13 -7 10 -3 -4 -16 1 -27
10 -12 10 -6 1 13 -19 19 -21 38 -35 43 -32 5 3 7 1 6 -4 -2 -5 12 -21 29 -36
36 -30 48 -23 39 24 -2 14 -5 40 -5 58 -1 36 -7 38 -36 16z"/>
<path d="M3567 2684 c-14 -15 -6 -34 14 -34 14 0 19 5 17 17 -3 18 -20 27 -31
17z"/>
<path d="M3202 2658 c-7 -7 -12 -24 -12 -39 0 -20 -11 -37 -38 -60 -52 -44
-103 -46 -159 -8 -44 30 -53 34 -53 21 0 -4 22 -21 48 -39 65 -42 65 -69 -2
-127 -33 -30 -55 -42 -68 -38 -26 6 -52 47 -45 72 3 10 -1 27 -8 37 -11 14
-18 16 -32 7 -27 -16 -29 -51 -3 -59 27 -9 56 -63 41 -78 -15 -15 -14 -50 1
-65 7 -7 24 -12 38 -12 34 0 50 17 50 52 0 34 82 115 112 110 11 -2 30 4 43
12 39 25 107 21 135 -9 13 -14 31 -25 41 -25 45 0 67 70 28 90 -23 13 -69 6
-69 -10 0 -11 -79 -14 -104 -4 -9 3 -16 12 -16 18 0 20 82 81 105 78 26 -3 41
8 49 34 13 41 -51 73 -82 42z"/>
<path d="M2339 2633 c-13 -16 -12 -17 4 -4 9 7 17 15 17 17 0 8 -8 3 -21 -13z"/>
<path d="M2388 2553 l-118 -93 0 -160 0 -160 93 72 c50 39 105 82 120 95 24
19 40 23 95 23 58 0 73 -4 112 -30 25 -16 48 -30 53 -30 4 0 7 42 7 94 l0 95
-112 88 c-62 49 -117 92 -123 95 -5 3 -63 -37 -127 -89z"/>
<path d="M1300 2615 c0 -8 9 -15 20 -15 11 0 20 7 20 15 0 8 -9 15 -20 15 -11
0 -20 -7 -20 -15z"/>
<path d="M3330 2585 c0 -20 5 -25 25 -25 20 0 25 5 25 25 0 20 -5 25 -25 25
-20 0 -25 -5 -25 -25z"/>
<path d="M3507 2603 c-4 -3 -7 -17 -7 -30 0 -18 5 -23 25 -23 21 0 25 5 25 30
0 22 -5 30 -18 30 -10 0 -22 -3 -25 -7z"/>
<path d="M2270 2579 c0 -5 5 -7 10 -4 6 3 10 8 10 11 0 2 -4 4 -10 4 -5 0 -10
-5 -10 -11z"/>
<path d="M2916 2575 c6 -16 4 -18 -6 -8 -7 6 -19 9 -26 6 -20 -7 2 -33 27 -33
25 0 31 14 14 36 -15 18 -15 18 -9 -1z"/>
<path d="M1510 2555 c0 -20 5 -25 25 -25 20 0 25 5 25 25 0 20 -5 25 -25 25
-20 0 -25 -5 -25 -25z"/>
<path d="M1705 2550 c-3 -5 -2 -10 3 -10 5 0 7 -13 4 -30 -3 -18 0 -30 7 -30
6 0 11 17 11 40 0 38 -12 52 -25 30z"/>
<path d="M1780 2545 c-15 -19 -5 -64 17 -72 9 -4 21 1 29 12 18 24 18 37 -1
61 -14 18 -14 17 -4 -8 9 -21 9 -31 -1 -43 -7 -8 -16 -15 -20 -15 -13 0 -19
42 -9 62 12 22 6 24 -11 3z"/>
<path d="M1877 2553 c-4 -3 -7 -21 -7 -39 0 -35 23 -52 46 -33 22 18 15 79 -8
79 -6 0 -6 -6 2 -14 15 -20 9 -61 -10 -61 -11 0 -15 11 -15 38 0 20 0 37 -1
37 0 0 -4 -3 -7 -7z"/>
<path d="M1966 2544 c-16 -42 6 -80 38 -68 16 6 23 68 9 77 -5 3 -8 -11 -8
-31 0 -19 -5 -37 -12 -39 -18 -6 -28 44 -13 62 7 9 8 15 2 15 -5 0 -13 -7 -16
-16z"/>
<path d="M2060 2541 c-7 -13 -7 -28 0 -46 18 -48 69 -14 56 38 -8 32 -40 36
-56 8z m48 -16 c3 -26 -13 -50 -27 -41 -6 4 -11 21 -11 37 0 24 4 30 18 27 9
-2 18 -12 20 -23z"/>
<path d="M2154 2533 c-8 -32 6 -58 32 -58 14 0 20 8 22 34 2 18 0 37 -5 42 -4
4 -8 -8 -8 -28 0 -20 -5 -38 -12 -40 -18 -6 -28 44 -13 62 8 10 9 15 1 15 -6
0 -14 -12 -17 -27z"/>
<path d="M3644 2513 c4 -26 36 -29 36 -4 0 14 -6 21 -19 21 -13 0 -18 -6 -17
-17z"/>
<path d="M1400 2490 c0 -15 7 -20 25 -20 18 0 25 5 25 20 0 15 -7 20 -25 20
-18 0 -25 -5 -25 -20z"/>
<path d="M3430 2485 c0 -20 5 -25 25 -25 20 0 25 5 25 25 0 20 -5 25 -25 25
-20 0 -25 -5 -25 -25z"/>
<path d="M3550 2450 c0 -15 7 -20 25 -20 18 0 25 5 25 20 0 15 -7 20 -25 20
-18 0 -25 -5 -25 -20z"/>
<path d="M1546 2444 c-21 -21 -20 -40 4 -64 25 -25 45 -25 70 0 16 16 28 19
60 14 38 -6 40 -9 40 -41 0 -21 4 -32 11 -28 5 4 9 17 7 28 -3 26 -1 27 55 27
37 0 46 -4 55 -25 8 -17 20 -25 37 -25 25 0 148 -73 185 -110 25 -25 42 -25
63 -2 26 28 22 70 -8 84 -28 13 -47 58 -39 97 4 18 0 32 -10 41 -14 11 -20 10
-39 -7 -29 -27 -92 -37 -108 -17 -15 19 -54 18 -74 -2 -13 -14 -29 -15 -116
-6 -85 8 -103 13 -115 31 -18 25 -56 28 -78 5z m503 -68 c25 -29 29 -71 11
-93 -16 -20 -19 -21 -41 -6 -72 48 -87 63 -82 82 8 29 91 42 112 17z"/>
<path d="M2164 2407 c-3 -9 -4 -28 -2 -44 2 -22 8 -28 28 -28 23 0 25 4 25 40
0 34 -3 40 -23 43 -13 2 -24 -3 -28 -11z m41 -33 c0 -19 -5 -29 -15 -29 -16 0
-25 28 -16 51 10 25 31 10 31 -22z"/>
<path d="M3440 2355 c0 -8 9 -15 20 -15 11 0 20 7 20 15 0 8 -9 15 -20 15 -11
0 -20 -7 -20 -15z"/>
<path d="M3070 2310 c0 -13 7 -20 20 -20 13 0 20 7 20 20 0 13 -7 20 -20 20
-13 0 -20 -7 -20 -20z"/>
<path d="M3207 2293 c-4 -3 -7 -17 -7 -30 0 -19 5 -23 29 -23 23 0 30 5 33 25
3 13 3 27 0 30 -8 7 -47 6 -55 -2z"/>
<path d="M1697 2253 c-4 -3 -7 -21 -7 -39 0 -33 18 -48 46 -37 20 7 15 74 -6
81 -13 5 -13 3 -1 -11 14 -18 8 -67 -9 -67 -13 0 -22 37 -15 60 6 20 4 25 -8
13z"/>
<path d="M1795 2250 c-3 -5 -2 -10 4 -10 5 0 12 -17 14 -37 3 -35 4 -34 5 10
2 44 -9 60 -23 37z"/>
<path d="M1877 2253 c-12 -12 -7 -60 7 -72 31 -26 67 20 46 59 -14 27 -15 26
-15 -17 0 -20 -5 -38 -12 -40 -18 -6 -28 44 -13 62 12 15 0 22 -13 8z"/>
<path d="M2990 1660 l0 -160 30 0 c26 0 30 4 30 28 0 25 34 73 43 61 58 -79
70 -89 103 -89 19 0 34 2 34 5 0 3 -20 31 -45 64 -25 32 -45 63 -45 67 0 5 21
30 47 56 l47 48 -40 0 c-37 0 -45 -5 -83 -50 -23 -27 -46 -50 -52 -50 -5 0 -9
40 -9 90 l0 90 -30 0 -30 0 0 -160z"/>
<path d="M1810 1694 c0 -110 2 -119 25 -150 65 -85 216 -58 245 44 5 20 10 79
10 130 l0 93 -32 -3 -33 -3 -3 -105 c-2 -91 -6 -108 -24 -127 -26 -28 -68 -30
-99 -4 -22 18 -24 29 -29 128 l-5 108 -27 3 -28 3 0 -117z"/>
<path d="M2415 1802 c-3 -3 -5 -16 -5 -29 0 -21 4 -23 50 -23 l50 0 0 -125 0
-125 35 0 35 0 0 125 0 125 50 0 c49 0 50 1 50 31 l0 30 -130 -2 c-72 -1 -132
-5 -135 -7z"/>
<path d="M2140 1580 l0 -160 35 0 35 0 0 49 0 50 34 -14 c91 -38 172 41 152
149 -13 68 -89 104 -160 76 -17 -6 -26 -6 -26 0 0 6 -16 10 -35 10 l-35 0 0
-160z m175 85 c30 -30 31 -54 4 -89 -38 -49 -109 -24 -109 38 0 36 7 48 35 64
30 17 43 15 70 -13z"/>
<path d="M2764 1730 c-30 -12 -62 -56 -70 -95 -19 -105 118 -181 214 -118 23
14 23 15 6 34 -13 14 -20 16 -31 8 -22 -19 -92 -14 -108 7 -8 11 -15 22 -15
27 0 4 43 7 95 7 l96 0 -6 38 c-5 24 -19 49 -41 70 -28 26 -41 32 -76 31 -24
0 -53 -4 -64 -9z m104 -52 c27 -27 13 -38 -48 -38 -33 0 -60 3 -60 7 0 34 81
58 108 31z"/>
</g>
</svg>
